<svg xmlns="http://www.w3.org/2000/svg" viewBox="0 0 32 32">
  <circle cx="16" cy="16" r="16" fill="#F7931A" />
  <path fill="#FFF" d="M23.905,14.733c0.354-2.39-1.468-3.673-3.957-4.515l0.812-3.256l-2.222-0.554l-0.796,3.195c-0.584-0.146-1.184-0.286-1.782-0.419l0.801-3.208l-2.221-0.554l-0.814,3.264c-0.485-0.111-0.96-0.211-1.424-0.312l0,0l-3.056-0.762l-0.589,2.366 c0,0,1.644,0.378,1.609,0.4c0.898,0.224,1.06,0.822,1.034,1.288l-1.038,4.162c0.063,0.016,0.18,0.045,0.282,0.088 c-0.091-0.067-0.201-0.095-0.292-0.117l-1.455,5.833c-0.113,0.316-0.395,0.793-1.048,0.63c0.034,0.034-1.609-0.401-1.609-0.401 l-1.104,2.584l2.871,0.716c0.547,0.137,1.082,0.281,1.614,0.415l-0.819,3.284l2.221,0.554l0.806-3.235 c0.612,0.163,1.211,0.314,1.796,0.457l-0.817,3.275l2.222,0.554l0.835-3.351c3.048,0.58,5.326,0.347,6.31-2.435 c0.792-2.235-0.035-3.522-1.647-4.364C23.012,18.895,23.708,17.202,23.905,14.733z M18.3,22.781c-0.669,2.685-5.187,1.229-6.643,0.865 l1.184-4.75C14.298,19.261,18.969,20.097,18.3,22.781z M19.206,16.035c-0.61,2.441-4.423,1.157-5.666,0.847l1.077-4.32 C15.86,12.871,19.816,13.593,19.206,16.035z"/>
</svg>
